<svg xmlns="http://www.w3.org/2000/svg" xmlns:xlink="http://www.w3.org/1999/xlink" width="320" zoomAndPan="magnify" viewBox="0 0 240 74.999997" height="100" preserveAspectRatio="xMidYMid meet" version="1.0"><defs><g/></defs><g fill="rgb(16.859436%, 16.859436%, 16.859436%)" fill-opacity="1"><g transform="translate(40.957033, 33.893486)"><g><path d="M 17.273438 -22.175781 L 17.273438 -24.519531 L 2.703125 -24.519531 L 2.703125 0 L 5.230469 0 L 5.230469 -11.070312 L 16.914062 -11.070312 L 16.914062 -13.449219 L 5.230469 -13.449219 L 5.230469 -22.175781 Z M 17.273438 -22.175781 "/></g></g></g><g fill="rgb(16.859436%, 16.859436%, 16.859436%)" fill-opacity="1"><g transform="translate(58.950245, 33.893486)"><g><path d="M 6.671875 -9.015625 L 11.140625 -20.300781 L 15.578125 -9.015625 Z M 21.886719 0 L 11.140625 -26.214844 L 0.359375 0 L 3.101562 0 L 5.734375 -6.671875 L 16.515625 -6.671875 L 19.148438 0 Z M 21.886719 0 "/></g></g></g><g fill="rgb(16.859436%, 16.859436%, 16.859436%)" fill-opacity="1"><g transform="translate(81.19837, 33.893486)"><g><path d="M 18.714844 -6.816406 C 18.714844 -8.546875 18.28125 -10.023438 17.453125 -11.179688 C 16.585938 -12.332031 15.433594 -13.125 14.027344 -13.523438 C 14.855469 -13.882812 15.578125 -14.53125 16.117188 -15.503906 C 16.371094 -15.9375 16.550781 -16.371094 16.695312 -16.839844 C 16.839844 -17.308594 16.914062 -17.957031 16.914062 -18.789062 C 16.914062 -19.582031 16.695312 -20.410156 16.335938 -21.203125 C 15.253906 -23.402344 12.910156 -24.519531 9.339844 -24.519531 L 2.703125 -24.519531 L 2.703125 0 L 10.203125 0 C 12.691406 0 14.675781 -0.539062 16.191406 -1.695312 C 16.949219 -2.273438 17.5625 -3.027344 18.03125 -3.964844 C 18.460938 -4.867188 18.714844 -5.804688 18.714844 -6.816406 Z M 14.386719 -18.390625 C 14.386719 -17.054688 13.992188 -16.082031 13.199219 -15.433594 C 12.40625 -14.785156 11.359375 -14.460938 10.0625 -14.460938 L 5.230469 -14.460938 L 5.230469 -22.105469 L 9.339844 -22.105469 C 12.691406 -22.105469 14.386719 -20.84375 14.386719 -18.390625 Z M 16.191406 -7.320312 C 16.191406 -5.839844 15.6875 -4.652344 14.675781 -3.75 C 13.703125 -2.847656 12.441406 -2.417969 10.925781 -2.417969 L 5.230469 -2.417969 L 5.230469 -11.9375 L 11.324219 -11.9375 C 12.585938 -11.9375 13.703125 -11.503906 14.675781 -10.636719 C 15.109375 -10.242188 15.46875 -9.773438 15.757812 -9.230469 C 16.046875 -8.65625 16.191406 -8.042969 16.191406 -7.320312 Z M 16.191406 -7.320312 "/></g></g></g><g fill="rgb(16.859436%, 16.859436%, 16.859436%)" fill-opacity="1"><g transform="translate(100.633927, 33.893486)"><g><path d="M 5.230469 -12.117188 L 5.230469 -22.105469 L 10.925781 -22.105469 C 12.40625 -22.105469 13.59375 -21.636719 14.496094 -20.699219 C 15.363281 -19.761719 15.832031 -18.605469 15.832031 -17.164062 C 15.832031 -15.722656 15.363281 -14.53125 14.425781 -13.558594 C 13.488281 -12.585938 12.332031 -12.117188 10.925781 -12.117188 Z M 18.355469 -17.128906 C 18.355469 -19.21875 17.5625 -21.023438 16.046875 -22.429688 C 14.566406 -23.800781 12.730469 -24.519531 10.566406 -24.519531 L 2.703125 -24.519531 L 2.703125 0 L 5.230469 0 L 5.230469 -9.699219 L 8.148438 -9.699219 L 15.363281 0 L 18.75 0 L 11.179688 -9.699219 C 13.089844 -9.808594 14.710938 -10.492188 16.046875 -11.753906 C 17.5625 -13.160156 18.355469 -14.964844 18.355469 -17.128906 Z M 18.355469 -17.128906 "/></g></g></g><g fill="rgb(16.859436%, 16.859436%, 16.859436%)" fill-opacity="1"><g transform="translate(120.249774, 33.893486)"><g><path d="M 5.230469 0 L 5.230469 -24.519531 L 2.703125 -24.519531 L 2.703125 0 Z M 5.230469 0 "/></g></g></g><g fill="rgb(16.859436%, 16.859436%, 16.859436%)" fill-opacity="1"><g transform="translate(128.182658, 33.893486)"><g><path d="M 26.828125 -12.222656 C 26.828125 -13.957031 26.46875 -15.578125 25.820312 -17.128906 C 25.167969 -18.644531 24.269531 -19.976562 23.113281 -21.132812 C 21.960938 -22.285156 20.625 -23.1875 19.113281 -23.835938 C 17.5625 -24.484375 15.9375 -24.84375 14.207031 -24.84375 C 12.476562 -24.84375 10.816406 -24.484375 9.304688 -23.835938 C 7.789062 -23.1875 6.453125 -22.285156 5.300781 -21.132812 C 4.148438 -19.976562 3.246094 -18.644531 2.597656 -17.128906 C 1.945312 -15.578125 1.621094 -13.957031 1.621094 -12.222656 C 1.621094 -10.492188 1.945312 -8.835938 2.597656 -7.320312 C 3.246094 -5.804688 4.148438 -4.472656 5.300781 -3.316406 C 6.453125 -2.164062 7.789062 -1.261719 9.304688 -0.613281 C 10.816406 0.0351562 12.476562 0.359375 14.207031 0.359375 C 15.21875 0.359375 16.226562 0.253906 17.199219 0 L 27.1875 0 L 27.1875 -2.054688 L 23.511719 -2.054688 C 22.609375 -1.839844 21.671875 -1.621094 20.664062 -1.40625 C 21.5625 -1.945312 22.394531 -2.597656 23.113281 -3.316406 C 24.269531 -4.472656 25.167969 -5.804688 25.820312 -7.320312 C 26.46875 -8.835938 26.828125 -10.492188 26.828125 -12.222656 Z M 24.304688 -12.222656 C 24.304688 -9.449219 23.292969 -7.066406 21.347656 -5.121094 C 19.363281 -3.136719 16.984375 -2.164062 14.207031 -2.164062 C 11.429688 -2.164062 9.050781 -3.136719 7.105469 -5.121094 C 5.121094 -7.066406 4.148438 -9.449219 4.148438 -12.222656 C 4.148438 -15 5.121094 -17.382812 7.105469 -19.363281 C 9.050781 -21.3125 11.429688 -22.320312 14.207031 -22.320312 C 16.984375 -22.320312 19.363281 -21.3125 21.347656 -19.363281 C 23.292969 -17.382812 24.304688 -15 24.304688 -12.222656 Z M 24.304688 -12.222656 "/></g></g></g><g fill="rgb(16.859436%, 16.859436%, 16.859436%)" fill-opacity="1"><g transform="translate(156.452561, 33.893486)"><g><path d="M 20.445312 -8.113281 L 20.445312 -24.519531 L 17.921875 -24.519531 L 17.921875 -7.753906 C 17.921875 -6.742188 17.742188 -5.914062 17.382812 -5.230469 C 16.335938 -3.210938 14.316406 -2.199219 11.324219 -2.199219 C 9.375 -2.199219 7.824219 -2.632812 6.671875 -3.496094 C 5.335938 -4.472656 4.6875 -5.878906 4.6875 -7.753906 L 4.6875 -24.519531 L 2.164062 -24.519531 L 2.164062 -8.113281 C 2.164062 -5.445312 3.027344 -3.355469 4.761719 -1.839844 C 6.382812 -0.398438 8.582031 0.324219 11.324219 0.324219 C 14.027344 0.324219 16.191406 -0.398438 17.851562 -1.839844 C 19.582031 -3.355469 20.445312 -5.445312 20.445312 -8.113281 Z M 20.445312 -8.113281 "/></g></g></g><g fill="rgb(16.859436%, 16.859436%, 16.859436%)" fill-opacity="1"><g transform="translate(179.061266, 33.893486)"><g><path d="M 17.273438 0 L 17.273438 -2.34375 L 5.230469 -2.34375 L 5.230469 -11.070312 L 16.914062 -11.070312 L 16.914062 -13.449219 L 5.230469 -13.449219 L 5.230469 -22.175781 L 17.273438 -22.175781 L 17.273438 -24.519531 L 2.703125 -24.519531 L 2.703125 0 Z M 17.273438 0 "/></g></g></g><g fill="rgb(16.859436%, 16.859436%, 16.859436%)" fill-opacity="1"><g transform="translate(87.843748, 50.34343)"><g><path d="M 6.734375 -8.648438 L 6.734375 -9.5625 L 1.054688 -9.5625 L 1.054688 0 L 2.039062 0 L 2.039062 -4.316406 L 6.59375 -4.316406 L 6.59375 -5.246094 L 2.039062 -5.246094 L 2.039062 -8.648438 Z M 6.734375 -8.648438 "/></g></g></g><g fill="rgb(16.859436%, 16.859436%, 16.859436%)" fill-opacity="1"><g transform="translate(94.860921, 50.34343)"><g><path d="M 2.039062 -4.726562 L 2.039062 -8.621094 L 4.261719 -8.621094 C 4.835938 -8.621094 5.300781 -8.4375 5.652344 -8.070312 C 5.992188 -7.707031 6.171875 -7.257812 6.171875 -6.695312 C 6.171875 -6.132812 5.992188 -5.667969 5.625 -5.289062 C 5.257812 -4.90625 4.808594 -4.726562 4.261719 -4.726562 Z M 7.15625 -6.679688 C 7.15625 -7.496094 6.847656 -8.199219 6.257812 -8.746094 C 5.679688 -9.28125 4.964844 -9.5625 4.121094 -9.5625 L 1.054688 -9.5625 L 1.054688 0 L 2.039062 0 L 2.039062 -3.78125 L 3.179688 -3.78125 L 5.992188 0 L 7.3125 0 L 4.359375 -3.78125 C 5.105469 -3.824219 5.738281 -4.09375 6.257812 -4.585938 C 6.847656 -5.132812 7.15625 -5.835938 7.15625 -6.679688 Z M 7.15625 -6.679688 "/></g></g></g><g fill="rgb(16.859436%, 16.859436%, 16.859436%)" fill-opacity="1"><g transform="translate(102.510906, 50.34343)"><g><path d="M 2.601562 -3.515625 L 4.34375 -7.917969 L 6.074219 -3.515625 Z M 8.535156 0 L 4.34375 -10.222656 L 0.140625 0 L 1.210938 0 L 2.234375 -2.601562 L 6.441406 -2.601562 L 7.46875 0 Z M 8.535156 0 "/></g></g></g><g fill="rgb(16.859436%, 16.859436%, 16.859436%)" fill-opacity="1"><g transform="translate(111.18745, 50.34343)"><g><path d="M 2.039062 -7.046875 L 7.410156 0.589844 L 7.410156 -9.5625 L 6.425781 -9.5625 L 6.425781 -2.53125 L 1.054688 -10.167969 L 1.054688 0 L 2.039062 0 Z M 2.039062 -7.046875 "/></g></g></g><g fill="rgb(16.859436%, 16.859436%, 16.859436%)" fill-opacity="1"><g transform="translate(119.653056, 50.34343)"><g><path d="M 9.828125 -2.925781 L 8.746094 -2.925781 C 8.410156 -2.304688 7.945312 -1.800781 7.355469 -1.433594 C 6.765625 -1.054688 6.101562 -0.871094 5.398438 -0.871094 C 4.34375 -0.871094 3.445312 -1.25 2.699219 -2.039062 C 1.96875 -2.785156 1.617188 -3.699219 1.617188 -4.765625 C 1.617188 -5.835938 1.96875 -6.75 2.699219 -7.507812 C 3.039062 -7.859375 3.445312 -8.140625 3.910156 -8.351562 C 4.359375 -8.5625 4.808594 -8.675781 5.257812 -8.675781 C 5.695312 -8.675781 6.074219 -8.621094 6.414062 -8.523438 C 7.4375 -8.210938 8.210938 -7.59375 8.734375 -6.652344 L 9.816406 -6.652344 C 9.449219 -7.550781 8.875 -8.28125 8.070312 -8.84375 C 7.257812 -9.40625 6.371094 -9.6875 5.398438 -9.6875 C 4.0625 -9.6875 2.9375 -9.195312 2.011719 -8.226562 C 1.574219 -7.777344 1.238281 -7.242188 1 -6.652344 C 0.746094 -6.0625 0.632812 -5.429688 0.632812 -4.765625 C 0.632812 -3.417969 1.082031 -2.277344 2.011719 -1.320312 C 2.785156 -0.492188 3.710938 -0.015625 4.78125 0.113281 L 4.175781 1.449219 C 4.359375 1.421875 4.554688 1.390625 4.78125 1.351562 C 4.992188 1.320312 5.203125 1.308594 5.398438 1.335938 C 5.921875 1.421875 6.144531 1.703125 6.0625 2.195312 C 6.019531 2.503906 5.75 2.671875 5.257812 2.726562 C 4.78125 2.785156 4.273438 2.714844 3.753906 2.515625 L 3.402344 3.25 C 4.0625 3.515625 4.710938 3.601562 5.359375 3.515625 C 6.046875 3.417969 6.496094 3.109375 6.722656 2.585938 C 6.917969 2.125 6.890625 1.671875 6.664062 1.25 C 6.554688 1.070312 6.414062 0.914062 6.242188 0.800781 C 6.074219 0.6875 5.863281 0.632812 5.640625 0.632812 C 5.414062 0.632812 5.300781 0.648438 5.289062 0.648438 L 5.527344 0.140625 C 6.441406 0.125 7.296875 -0.15625 8.085938 -0.703125 C 8.886719 -1.265625 9.464844 -1.996094 9.828125 -2.925781 Z M 9.828125 -2.925781 "/></g></g></g><g fill="rgb(16.859436%, 16.859436%, 16.859436%)" fill-opacity="1"><g transform="translate(129.904592, 50.34343)"><g><path d="M 9.476562 -4.808594 C 9.476562 -3.710938 9.085938 -2.785156 8.324219 -2.023438 C 7.550781 -1.25 6.625 -0.871094 5.539062 -0.871094 C 4.457031 -0.871094 3.53125 -1.25 2.769531 -2.023438 C 1.996094 -2.785156 1.617188 -3.710938 1.617188 -4.808594 C 1.617188 -5.878906 1.996094 -6.804688 2.769531 -7.578125 C 3.53125 -8.339844 4.457031 -8.734375 5.539062 -8.734375 C 6.625 -8.734375 7.550781 -8.339844 8.324219 -7.578125 C 9.085938 -6.804688 9.476562 -5.878906 9.476562 -4.808594 Z M 10.460938 -4.808594 C 10.460938 -5.484375 10.320312 -6.117188 10.070312 -6.722656 C 9.816406 -7.3125 9.464844 -7.832031 9.015625 -8.28125 C 8.5625 -8.71875 8.042969 -9.070312 7.453125 -9.324219 C 6.847656 -9.578125 6.214844 -9.71875 5.539062 -9.71875 C 4.867188 -9.71875 4.21875 -9.578125 3.628906 -9.324219 C 3.039062 -9.070312 2.515625 -8.71875 2.066406 -8.28125 C 1.617188 -7.832031 1.265625 -7.3125 1.011719 -6.722656 C 0.757812 -6.117188 0.632812 -5.484375 0.632812 -4.808594 C 0.632812 -4.132812 0.757812 -3.488281 1.011719 -2.898438 C 1.265625 -2.292969 1.617188 -1.773438 2.066406 -1.320312 C 2.515625 -0.871094 3.039062 -0.519531 3.628906 -0.265625 C 4.21875 -0.015625 4.867188 0.113281 5.539062 0.113281 C 6.214844 0.113281 6.847656 -0.015625 7.453125 -0.265625 C 8.042969 -0.519531 8.5625 -0.871094 9.015625 -1.320312 C 9.464844 -1.773438 9.816406 -2.292969 10.070312 -2.898438 C 10.320312 -3.488281 10.460938 -4.132812 10.460938 -4.808594 Z M 10.460938 -4.808594 "/></g></g></g><g fill="rgb(16.859436%, 16.859436%, 16.859436%)" fill-opacity="1"><g transform="translate(140.999879, 50.34343)"><g><path d="M 2.039062 0 L 2.039062 -9.5625 L 1.054688 -9.5625 L 1.054688 0 Z M 2.039062 0 "/></g></g></g><g fill="rgb(16.859436%, 16.859436%, 16.859436%)" fill-opacity="1"><g transform="translate(144.093617, 50.34343)"><g><path d="M 3.699219 -4.5 C 4.9375 -4.203125 5.78125 -3.882812 6.230469 -3.515625 C 6.539062 -3.261719 6.695312 -2.9375 6.695312 -2.546875 C 6.695312 -2.152344 6.609375 -1.828125 6.441406 -1.601562 C 6.019531 -1.011719 5.257812 -0.71875 4.191406 -0.71875 C 2.699219 -0.71875 1.855469 -1.222656 1.671875 -2.234375 L 0.519531 -2.234375 C 0.859375 -0.617188 2.082031 0.183594 4.191406 0.183594 C 5.132812 0.183594 5.921875 -0.015625 6.554688 -0.4375 C 7.3125 -0.929688 7.707031 -1.660156 7.707031 -2.617188 C 7.707031 -3.402344 7.398438 -4.007812 6.777344 -4.429688 C 6.34375 -4.738281 5.640625 -5.019531 4.667969 -5.273438 C 3.683594 -5.527344 3.050781 -5.738281 2.757812 -5.890625 C 2.109375 -6.214844 1.785156 -6.664062 1.800781 -7.257812 C 1.800781 -7.566406 1.855469 -7.832031 1.996094 -8.03125 C 2.363281 -8.578125 3.007812 -8.859375 3.9375 -8.859375 C 5.246094 -8.859375 5.992188 -8.4375 6.1875 -7.621094 L 7.257812 -7.621094 C 6.90625 -9 5.792969 -9.703125 3.9375 -9.703125 C 3.09375 -9.703125 2.347656 -9.476562 1.730469 -9.027344 C 1.097656 -8.578125 0.773438 -7.917969 0.773438 -7.015625 C 0.773438 -5.792969 1.757812 -4.949219 3.699219 -4.5 Z M 3.699219 -4.5 "/></g></g></g></svg>